<svg xmlns="http://www.w3.org/2000/svg" width="16" height="16" viewBox="0 0 16 16">
  <metadata><?xpacket begin="﻿" id="W5M0MpCehiHzreSzNTczkc9d"?>
<x:xmpmeta xmlns:x="adobe:ns:meta/" x:xmptk="Adobe XMP Core 5.6-c138 79.159824, 2016/09/14-01:09:01        ">
   <rdf:RDF xmlns:rdf="http://www.w3.org/1999/02/22-rdf-syntax-ns#">
      <rdf:Description rdf:about=""/>
   </rdf:RDF>
</x:xmpmeta>
<?xpacket end="w"?></metadata>
<defs>
    <style>
      .cls-1 {
        fill: #fff;
        fill-rule: evenodd;
        opacity: 0.32;
      }
    </style>
  </defs>
  <path class="cls-1" d="M23.912,388A0.911,0.911,0,0,1,23,387.088v-12.6A2.489,2.489,0,0,1,25.487,372H36.513A2.489,2.489,0,0,1,39,374.487v7.875a2.49,2.49,0,0,1-2.487,2.488H27.44l-2.883,2.883A0.91,0.91,0,0,1,23.912,388Zm1.575-14.177a0.664,0.664,0,0,0-.663.664v10.4l1.594-1.593a0.916,0.916,0,0,1,.645-0.267h9.451a0.664,0.664,0,0,0,.663-0.664v-7.875a0.664,0.664,0,0,0-.663-0.664H25.487Z" transform="translate(-23 -372)"/>
</svg>
