<svg xmlns="http://www.w3.org/2000/svg" width="20.063" height="20" viewBox="0 0 20.063 20">
  <metadata><?xpacket begin="﻿" id="W5M0MpCehiHzreSzNTczkc9d"?>
<x:xmpmeta xmlns:x="adobe:ns:meta/" x:xmptk="Adobe XMP Core 5.6-c138 79.159824, 2016/09/14-01:09:01        ">
   <rdf:RDF xmlns:rdf="http://www.w3.org/1999/02/22-rdf-syntax-ns#">
      <rdf:Description rdf:about=""/>
   </rdf:RDF>
</x:xmpmeta>
                                                                                                    
                                                                                                    
                                                                                                    
                                                                                                    
                                                                                                    
                                                                                                    
                                                                                                    
                                                                                                    
                                                                                                    
                                                                                                    
                                                                                                    
                                                                                                    
                                                                                                    
                                                                                                    
                                                                                                    
                                                                                                    
                                                                                                    
                                                                                                    
                                                                                                    
                                                                                                    
                           
<?xpacket end="w"?></metadata>
<defs>
    <style>
      .cls-1 {
        fill: #167ade;
        fill-rule: evenodd;
      }
    </style>
  </defs>
  <path id="Exit" class="cls-1" d="M973.468,38h-8.46a1,1,0,0,1-1-1V19a1,1,0,0,1,1-1h8.46a1,1,0,1,1,0,2.005H966.01V35.991h7.458A1,1,0,1,1,973.468,38Zm4.8-13.344,2.329,2.281h-8.682a1,1,0,1,0,0,2.005h8.682l-2.329,2.281a1,1,0,1,0,1.4,1.433l4.084-4a1,1,0,0,0,0-1.433l-4.084-4A1,1,0,1,0,978.265,24.652Z" transform="translate(-964 -18)"/>
</svg>
