<svg xmlns="http://www.w3.org/2000/svg" width="18" height="16" viewBox="0 0 18 16">
  <metadata><?xpacket begin="﻿" id="W5M0MpCehiHzreSzNTczkc9d"?>
<x:xmpmeta xmlns:x="adobe:ns:meta/" x:xmptk="Adobe XMP Core 5.6-c138 79.159824, 2016/09/14-01:09:01        ">
   <rdf:RDF xmlns:rdf="http://www.w3.org/1999/02/22-rdf-syntax-ns#">
      <rdf:Description rdf:about=""/>
   </rdf:RDF>
</x:xmpmeta>
                                                                                                    
                                                                                                    
                                                                                                    
                                                                                                    
                                                                                                    
                                                                                                    
                                                                                                    
                                                                                                    
                                                                                                    
                                                                                                    
                                                                                                    
                                                                                                    
                                                                                                    
                                                                                                    
                                                                                                    
                                                                                                    
                                                                                                    
                                                                                                    
                                                                                                    
                                                                                                    
                           
<?xpacket end="w"?></metadata>
<defs>
    <style>
      .cls-1 {
        fill: #b2b2b2;
        fill-rule: evenodd;
      }
    </style>
  </defs>
  <path id="folder" class="cls-1" d="M290,230l1.661,1.489A2,2,0,0,0,293,232h7v9.669a0.364,0.364,0,0,1-.382.331H286.382a0.364,0.364,0,0,1-.382-0.331V230.331a0.364,0.364,0,0,1,.382-0.331H290m0.514-2h-4.136A2.359,2.359,0,0,0,284,230.331v11.338A2.359,2.359,0,0,0,286.382,244h13.236A2.36,2.36,0,0,0,302,241.669V232a1.8,1.8,0,0,0-2-2h-7l-1.877-1.683a0.732,0.732,0,0,0-.605-0.317h0Z" transform="translate(-284 -228)"/>
</svg>
