<svg xmlns="http://www.w3.org/2000/svg" width="16.969" height="18.031" viewBox="0 0 16.969 18.031">
  <metadata><?xpacket begin="﻿" id="W5M0MpCehiHzreSzNTczkc9d"?>
<x:xmpmeta xmlns:x="adobe:ns:meta/" x:xmptk="Adobe XMP Core 5.6-c138 79.159824, 2016/09/14-01:09:01        ">
   <rdf:RDF xmlns:rdf="http://www.w3.org/1999/02/22-rdf-syntax-ns#">
      <rdf:Description rdf:about=""/>
   </rdf:RDF>
</x:xmpmeta>
                                                                                                    
                                                                                                    
                                                                                                    
                                                                                                    
                                                                                                    
                                                                                                    
                                                                                                    
                                                                                                    
                                                                                                    
                                                                                                    
                                                                                                    
                                                                                                    
                                                                                                    
                                                                                                    
                                                                                                    
                                                                                                    
                                                                                                    
                                                                                                    
                                                                                                    
                                                                                                    
                           
<?xpacket end="w"?></metadata>
<defs>
    <style>
      .cls-1 {
        fill: #fff;
        fill-rule: evenodd;
        opacity: 0.32;
      }
    </style>
  </defs>
  <path class="cls-1" d="M25.695,91a2.649,2.649,0,0,1-2.687-2.6V79.583a1,1,0,0,1,.4-0.79l7.445-5.607a1.062,1.062,0,0,1,1.268,0l7.445,5.609a0.994,0.994,0,0,1,.4.789v8.812A2.649,2.649,0,0,1,37.276,91H25.695Zm-0.621-2.6a0.613,0.613,0,0,0,.621.6H37.276a0.613,0.613,0,0,0,.621-0.6V80.073l-6.411-4.829-6.412,4.829v8.322ZM33.967,91a1.018,1.018,0,0,1-1.033-1v-7.01h-2.9V90a1.034,1.034,0,0,1-2.066,0V81.986a1.018,1.018,0,0,1,1.033-1h4.964a1.019,1.019,0,0,1,1.034,1V90A1.018,1.018,0,0,1,33.967,91Z" transform="translate(-23 -72.969)"/>
</svg>
