<svg xmlns="http://www.w3.org/2000/svg" width="18" height="18" viewBox="0 0 18 18">
  <metadata><?xpacket begin="﻿" id="W5M0MpCehiHzreSzNTczkc9d"?>
<x:xmpmeta xmlns:x="adobe:ns:meta/" x:xmptk="Adobe XMP Core 5.6-c138 79.159824, 2016/09/14-01:09:01        ">
   <rdf:RDF xmlns:rdf="http://www.w3.org/1999/02/22-rdf-syntax-ns#">
      <rdf:Description rdf:about=""/>
   </rdf:RDF>
</x:xmpmeta>
                                                                                                    
                                                                                                    
                                                                                                    
                                                                                                    
                                                                                                    
                                                                                                    
                                                                                                    
                                                                                                    
                                                                                                    
                                                                                                    
                                                                                                    
                                                                                                    
                                                                                                    
                                                                                                    
                                                                                                    
                                                                                                    
                                                                                                    
                                                                                                    
                                                                                                    
                                                                                                    
                           
<?xpacket end="w"?></metadata>
<defs>
    <style>
      .cls-1 {
        fill: #167ade;
        fill-rule: evenodd;
      }
    </style>
  </defs>
  <path id="Shape_525_copy_3" data-name="Shape 525 copy 3" class="cls-1" d="M944.643,246.014A2.645,2.645,0,0,1,942,243.369V230.64A2.645,2.645,0,0,1,944.643,228H957.35a2.645,2.645,0,0,1,2.64,2.645v12.729a2.646,2.646,0,0,1-2.641,2.645H944.643Zm0-16.079a0.705,0.705,0,0,0-.705.7v12.729a0.705,0.705,0,0,0,.705.705H957.35a0.705,0.705,0,0,0,.7-0.705V230.64a0.705,0.705,0,0,0-.7-0.7H944.643Zm3.362,8.071a1,1,0,1,1,0-2h5.981a1,1,0,1,1,0,2h-5.981Z" transform="translate(-942 -228)"/>
</svg>
